<svg width="200" height="52" viewBox="0 0 200 52" fill="none" xmlns="http://www.w3.org/2000/svg">
<path d="M25.9275 52C40.2468 52 51.8549 40.3594 51.8549 26C51.8549 11.6406 40.2468 0 25.9275 0C11.6081 0 0 11.6406 0 26C0 40.3594 11.6081 52 25.9275 52Z" fill="#27AAE1"/>
<path d="M19.3791 51.1905C30.6477 48.364 38.9967 38.143 38.9967 25.9692C38.9967 13.8782 30.7669 3.71548 19.6176 0.806152C8.34594 3.63271 0 13.8537 0 26.0305C0 38.1185 8.22977 48.2812 19.3791 51.1905Z" fill="#1B75BC"/>
<path d="M25.9183 25.9696C25.9183 16.3679 20.7273 7.98332 13.0081 3.48291C5.23379 7.97106 0 16.3863 0 26.031C0 35.6327 5.19099 44.0173 12.9102 48.5177C20.6845 44.0295 25.9183 35.6112 25.9183 25.9696Z" fill="#005D9D"/>
<path d="M13.0233 25.9694C13.0233 19.3752 10.5746 13.3542 6.53918 8.771C2.47015 13.3634 0 19.4058 0 26.0308C0 32.625 2.44875 38.646 6.48416 43.2292C10.5532 38.6368 13.0233 32.5944 13.0233 25.9694Z" fill="#2B3990"/>
<path d="M32.4757 0.806152C21.2072 3.63271 12.8582 13.8537 12.8582 26.0275C12.8582 38.1185 21.0879 48.2812 32.2372 51.1905C43.5058 48.364 51.8548 38.143 51.8548 25.9692C51.8548 13.8782 43.625 3.71548 32.4757 0.806152Z" fill="#009D9D"/>
<path d="M25.9793 3.42432C18.1439 7.89714 12.8582 16.3431 12.8582 26.0306C12.8582 35.6752 18.0981 44.0874 25.8723 48.5756C33.7077 44.1028 38.9935 35.6599 38.9935 25.9724C38.9935 16.3247 33.7566 7.91247 25.9793 3.42432Z" fill="#009090"/>
<path d="M25.9336 26.031C25.9336 35.6327 31.1246 44.0173 38.8438 48.5177C46.6181 44.0295 51.8549 35.6112 51.8549 25.9696C51.8549 16.3679 46.6639 7.98332 38.9447 3.48291C31.1704 7.97106 25.9336 16.3863 25.9336 26.031Z" fill="#8DC63F"/>
<path d="M38.8315 26.0308C38.8315 32.625 41.2803 38.646 45.3157 43.2292C49.3817 38.6368 51.8549 32.5944 51.8549 25.9694C51.8549 19.3752 49.4061 13.3542 45.3707 8.771C41.3017 13.3634 38.8315 19.4058 38.8315 26.0308Z" fill="#F7941D"/>
<path opacity="0.8" d="M12.8582 26.0306C12.8582 32.6371 15.3191 38.6612 19.3668 43.2474C23.4419 38.655 25.9212 32.6034 25.9212 25.9693C25.9212 19.3658 23.4664 13.3387 19.4218 8.75244C15.3405 13.3448 12.8582 19.3965 12.8582 26.0306Z" fill="#008484"/>
<path opacity="0.8" d="M25.9336 26.0306C25.9336 32.6341 28.3885 38.6612 32.433 43.2474C36.5112 38.655 38.9936 32.6034 38.9936 25.9693C38.9936 19.3627 36.5357 13.3356 32.485 8.75244C28.4099 13.3448 25.9336 19.3965 25.9336 26.0306Z" fill="#79AD36"/>
<path d="M79.3294 25.4758H76.1255V18.8049H75.7831L70.7205 25.4758H67.0764L73.0928 17.6031L67.5656 9.73047H71.2096L75.832 16.4259H76.1255V9.73047H79.3294V16.4259H79.6228L84.2452 9.73047H87.8893L82.362 17.6031L88.3784 25.4758H84.7344L79.6473 18.8049H79.3294V25.4758V25.4758Z" fill="black"/>
<path d="M96.2048 23.06C96.4494 23.0355 96.6695 22.9865 96.8652 22.9129C97.0608 22.8393 97.2351 22.7381 97.391 22.6063C97.5469 22.4745 97.6875 22.2967 97.819 22.0668L91.9004 9.73047H95.1776L99.2864 18.1182L99.5065 19.2954L99.7022 18.1182L103.273 9.73047H106.721L101.83 20.5707C101.521 21.2084 101.246 21.7755 101.011 22.2752C100.775 22.7749 100.537 23.2103 100.301 23.5873C100.066 23.9644 99.8153 24.2832 99.5554 24.5438C99.2956 24.8044 98.9715 25.0129 98.5894 25.1692C98.2072 25.3256 97.7426 25.439 97.1953 25.5126C96.6481 25.5861 95.9939 25.6229 95.2265 25.6229L95.3733 23.0968C95.6851 23.0968 95.9603 23.0846 96.2048 23.06Z" fill="black"/>
<path d="M115.526 18.9275H114.083V25.4758H110.879V9.73047H114.083V16.3033H115.526L120.344 9.73047H124.11C123.117 11.0395 122.117 12.3516 121.114 13.6668C120.111 14.982 119.106 16.2941 118.094 17.6031C119.106 18.9122 120.111 20.2273 121.114 21.5517C122.117 22.8761 123.117 24.1851 124.11 25.4758H120.344L115.526 18.9275Z" fill="black"/>
<path d="M128.757 17.5786C128.757 15.8128 128.965 14.3933 129.38 13.3234C129.796 12.2535 130.359 11.4258 131.068 10.8464C131.777 10.2669 132.609 9.88067 133.563 9.69366C134.516 9.50666 135.541 9.41162 136.632 9.41162C137.723 9.41162 138.748 9.50666 139.701 9.69366C140.655 9.88067 141.487 10.2669 142.196 10.8464C142.905 11.4258 143.468 12.2535 143.883 13.3234C144.299 14.3933 144.507 15.8128 144.507 17.5786C144.507 19.3444 144.299 20.7638 143.883 21.8337C143.468 22.9037 142.905 23.7314 142.196 24.3108C141.487 24.8902 140.655 25.2765 139.701 25.4635C138.748 25.6505 137.723 25.7455 136.632 25.7455C135.541 25.7455 134.516 25.6505 133.563 25.4635C132.609 25.2765 131.777 24.8902 131.068 24.3108C130.359 23.7314 129.796 22.9037 129.38 21.8337C128.965 20.7638 128.757 19.3444 128.757 17.5786ZM136.632 12.0113C136.011 12.0113 135.424 12.0389 134.871 12.0972C134.318 12.1554 133.829 12.3577 133.404 12.7103C132.979 13.0628 132.645 13.6147 132.401 14.3658C132.156 15.1168 132.034 16.1898 132.034 17.5786C132.034 18.9673 132.156 20.0403 132.401 20.7914C132.645 21.5425 132.979 22.0943 133.404 22.4469C133.829 22.7994 134.318 23.0018 134.871 23.06C135.424 23.1183 136.011 23.1459 136.632 23.1459C137.234 23.1459 137.815 23.1183 138.368 23.06C138.922 23.0018 139.411 22.7994 139.836 22.4469C140.261 22.0943 140.597 21.5425 140.851 20.7914C141.105 20.0403 141.23 18.9673 141.23 17.5786C141.23 16.1898 141.105 15.1168 140.851 14.3658C140.597 13.6147 140.255 13.0628 139.824 12.7103C139.393 12.3577 138.897 12.1554 138.344 12.0972C137.791 12.042 137.219 12.0113 136.632 12.0113Z" fill="black"/>
<path d="M149.741 25.4758V9.73047H156.467C157.625 9.73047 158.594 9.78258 159.377 9.88988C160.16 9.99718 160.783 10.1934 161.248 10.4785C161.713 10.7636 162.043 11.1683 162.238 11.6925C162.434 12.2167 162.532 12.8942 162.532 13.7281C162.532 14.3504 162.492 14.8655 162.41 15.2732C162.327 15.6809 162.202 16.0304 162.031 16.3155C161.859 16.6006 161.648 16.8428 161.395 17.039C161.141 17.2352 160.854 17.4161 160.526 17.5786C160.854 17.7411 161.15 17.9189 161.419 18.1059C161.688 18.2929 161.917 18.532 162.104 18.8171C162.29 19.1022 162.434 19.4548 162.532 19.8717C162.63 20.2887 162.679 20.8006 162.679 21.4046C162.679 22.2384 162.578 22.9221 162.373 23.4524C162.168 23.9828 161.832 24.3967 161.358 24.691C160.884 24.9853 160.257 25.1907 159.475 25.3041C158.692 25.4175 157.723 25.4758 156.564 25.4758H149.741V25.4758ZM156.907 16.2542C157.347 16.2542 157.723 16.2328 158.032 16.1929C158.341 16.1531 158.585 16.055 158.766 15.8986C158.946 15.7423 159.074 15.5031 159.157 15.1751C159.239 14.8471 159.279 14.3903 159.279 13.8017C159.279 13.4583 159.23 13.1916 159.132 13.0046C159.035 12.8176 158.879 12.6735 158.668 12.5754C158.457 12.4773 158.169 12.416 157.812 12.3915C157.454 12.3669 157.02 12.3547 156.516 12.3547H152.48V16.2542H156.907V16.2542ZM156.613 22.8516C157.118 22.8516 157.552 22.8424 157.91 22.827C158.267 22.8117 158.561 22.7627 158.79 22.6799C159.019 22.5971 159.181 22.4592 159.279 22.263C159.377 22.0668 159.426 21.7816 159.426 21.4046C159.426 20.7669 159.38 20.2764 159.291 19.933C159.203 19.5897 159.056 19.3414 158.851 19.185C158.646 19.0287 158.386 18.9398 158.069 18.9152C157.751 18.8907 157.362 18.8784 156.907 18.8784H152.48V22.8516H156.613V22.8516Z" fill="black"/>
<path d="M172.804 18.9275H171.361V25.4758H168.157V9.73047H171.361V16.3033H172.804L177.622 9.73047H181.388C180.395 11.0395 179.395 12.3516 178.392 13.6668C177.39 14.982 176.384 16.2941 175.372 17.6031C176.384 18.9122 177.39 20.2273 178.392 21.5517C179.395 22.8761 180.395 24.1851 181.388 25.4758H177.622L172.804 18.9275Z" fill="black"/>
<path d="M194.448 9.73047L200 25.4758H196.478L195.109 21.0367H190.193L188.848 25.4758H185.326L190.878 9.73047H194.448V9.73047ZM190.902 18.7558H194.424L193.177 14.6601L192.736 12.183H192.59L192.149 14.6601L190.902 18.7558Z" fill="black"/>
<path d="M69.3998 39.2284H68.6783V42.5025H67.0764V34.6299H68.6783V37.9163H69.3998L71.8089 34.6299H73.692C73.1937 35.2829 72.6954 35.9389 72.1941 36.598C71.6927 37.2572 71.1883 37.9132 70.6838 38.5662C71.1883 39.2192 71.6927 39.8783 72.1941 40.5405C72.6954 41.2027 73.1937 41.8557 73.692 42.5025H71.8089L69.3998 39.2284Z" fill="black"/>
<path d="M83.3035 42.5025V35.9665H80.9801L80.7355 40.0377C80.7111 40.5773 80.6408 41.0157 80.5215 41.3498C80.4023 41.684 80.2189 41.9446 79.9712 42.1285C79.7236 42.3125 79.4026 42.4351 79.0113 42.4964C78.62 42.5577 78.1431 42.5884 77.5806 42.5884L77.6539 41.3253C77.8985 41.3253 78.1095 41.3161 78.2837 41.2947C78.458 41.2732 78.6078 41.2242 78.73 41.1475C78.8523 41.0709 78.9471 40.9482 79.0113 40.7796C79.0755 40.611 79.1183 40.3811 79.1336 40.0868L79.5004 34.6299H84.9054V42.5025H83.3035V42.5025Z" fill="black"/>
<path d="M89.6992 42.5025V34.6299H91.2522V39.8047L94.4194 34.6299H96.1314V42.5025H94.5661V37.3032L91.399 42.5025H89.6992Z" fill="black"/>
<path d="M105.706 42.5025V38.9831H102.527V42.5025H100.925V34.6299H102.527V37.6465H105.706V34.6299H107.308V42.5025H105.706Z" fill="black"/>
<path d="M112.102 42.5025V34.6299H113.655V39.8047L116.822 34.6299H118.534V42.5025H116.968V37.3032L113.801 42.5025H112.102Z" fill="black"/>
<path d="M125.651 39.2284H124.929V42.5025H123.327V34.6299H124.929V37.9163H125.651L128.06 34.6299H129.943C129.445 35.2829 128.946 35.9389 128.445 36.598C127.944 37.2572 127.439 37.9132 126.935 38.5662C127.439 39.2192 127.944 39.8783 128.445 40.5405C128.946 41.2027 129.445 41.8557 129.943 42.5025H128.06L125.651 39.2284Z" fill="black"/>
<path d="M138.369 34.6299L141.144 42.5025H139.384L138.699 40.283H136.241L135.568 42.5025H133.807L136.583 34.6299H138.369V34.6299ZM136.595 39.1426H138.356L137.733 37.0947L137.513 35.8562H137.439L137.219 37.0947L136.595 39.1426Z" fill="black"/>
</svg>
