<svg width="32" height="32" viewBox="0 0 32 32" fill="none" xmlns="http://www.w3.org/2000/svg">
<path d="M7.33073 26.6667C6.96273 26.6667 6.66406 26.3681 6.66406 26.0001V19.3334C6.66406 18.9654 6.96273 18.6667 7.33073 18.6667H9.33073C10.8014 18.6667 11.9974 19.8627 11.9974 21.3334C11.9974 22.8041 10.8014 24.0001 9.33073 24.0001H7.99739V26.0001C7.99739 26.3681 7.69873 26.6667 7.33073 26.6667ZM7.99739 22.6667H9.33073C10.0654 22.6667 10.6641 22.0681 10.6641 21.3334C10.6641 20.5987 10.0654 20.0001 9.33073 20.0001H7.99739V22.6667Z" fill="#737881"/>
<path d="M25.9974 32H5.9974C4.16006 32 2.66406 30.504 2.66406 28.6667V3.33333C2.66406 1.496 4.16006 0 5.9974 0H25.9974C27.8347 0 29.3307 1.496 29.3307 3.33333V28.6667C29.3307 30.504 27.8347 32 25.9974 32ZM5.9974 1.33333C4.89473 1.33333 3.9974 2.23067 3.9974 3.33333V28.6667C3.9974 29.7693 4.89473 30.6667 5.9974 30.6667H25.9974C27.1001 30.6667 27.9974 29.7693 27.9974 28.6667V3.33333C27.9974 2.23067 27.1001 1.33333 25.9974 1.33333H5.9974Z" fill="#737881"/>
<path d="M16.6693 26.6667H14.0026C13.6346 26.6667 13.3359 26.3681 13.3359 26.0001V19.3334C13.3359 18.9654 13.6346 18.6667 14.0026 18.6667H16.6693C17.7719 18.6667 18.6693 19.5641 18.6693 20.6667V24.6667C18.6693 25.7694 17.7719 26.6667 16.6693 26.6667ZM14.6693 25.3334H16.6693C17.0373 25.3334 17.3359 25.0347 17.3359 24.6667V20.6667C17.3359 20.2987 17.0373 20.0001 16.6693 20.0001H14.6693V25.3334Z" fill="#737881"/>
<path d="M20.6667 26.6667C20.2987 26.6667 20 26.3681 20 26.0001V20.6667C20 19.5641 20.8973 18.6667 22 18.6667H24.6667C25.0347 18.6667 25.3333 18.9654 25.3333 19.3334C25.3333 19.7014 25.0347 20.0001 24.6667 20.0001H22C21.632 20.0001 21.3333 20.2987 21.3333 20.6667V26.0001C21.3333 26.3681 21.0347 26.6667 20.6667 26.6667Z" fill="#737881"/>
<path d="M24.6667 24.0001H20.6667C20.2987 24.0001 20 23.7014 20 23.3334C20 22.9654 20.2987 22.6667 20.6667 22.6667H24.6667C25.0347 22.6667 25.3333 22.9654 25.3333 23.3334C25.3333 23.7014 25.0347 24.0001 24.6667 24.0001Z" fill="#737881"/>
</svg>
