<svg width="24" height="24" viewBox="0 0 24 24" fill="#4285F4" xmlns="http://www.w3.org/2000/svg">
    <path d="M12.594 12.4759C13.1072 12.4066 13.467 11.9345 13.3978 11.4214C13.3285 10.9083 12.8564 10.5486 12.3433 10.6177C12.2303 10.6329 12.1148 10.6407 12 10.6407C10.6042 10.6407 9.4687 9.50513 9.4687 8.10942C9.4687 6.71372 10.6042 5.57817 12 5.57817C13.3957 5.57817 14.5312 6.71372 14.5312 8.10942C14.5312 8.24766 14.52 8.38613 14.4981 8.52103C14.4148 9.03206 14.7615 9.51389 15.2725 9.59719C15.7841 9.68044 16.2653 9.33375 16.3486 8.82277C16.3869 8.58839 16.4062 8.34839 16.4062 8.10938C16.4062 5.67975 14.4296 3.70312 12 3.70312C9.57037 3.70312 7.59375 5.67975 7.59375 8.10938C7.59375 10.539 9.57037 12.5156 12 12.5156C12.1984 12.5156 12.3983 12.5022 12.594 12.4759Z" fill="#4285F4" />
    <path d="M20.5671 18.5912C19.8459 18.2129 18.8558 17.8942 17.6242 17.6439C17.1165 17.5409 16.6219 17.8686 16.5188 18.376C16.4157 18.8833 16.7435 19.3783 17.2508 19.4814C19.1506 19.8674 19.9295 20.3307 20.1542 20.5554C19.9887 20.7212 19.4352 21.1376 17.8093 21.529C16.2121 21.9134 14.1491 22.1252 12 22.1252C9.85092 22.1252 7.78791 21.9134 6.19078 21.529C4.56478 21.1376 4.01137 20.7213 3.84586 20.5554C4.07053 20.3307 4.84936 19.8674 6.7492 19.4814C7.25658 19.3783 7.58433 18.8833 7.48125 18.376C7.37817 17.8686 6.88317 17.541 6.37584 17.6439C5.14425 17.8942 4.15411 18.2129 3.43294 18.5912C2.43028 19.1171 1.92188 19.7785 1.92188 20.5569C1.92188 21.7201 3.05466 22.6204 5.28872 23.2329C7.09364 23.7277 9.47709 24.0002 12 24.0002C14.5229 24.0002 16.9064 23.7277 18.7113 23.2329C20.9453 22.6204 22.0781 21.7201 22.0781 20.5569C22.0781 19.7785 21.5697 19.1171 20.5671 18.5912Z" fill="#4285F4" />
    <path d="M11.2075 19.8134C11.3793 20.0852 11.6785 20.25 12 20.25C12.3215 20.25 12.6207 20.0852 12.7925 19.8134C13.652 18.4535 14.7708 17.2607 15.8527 16.1072C17.9669 13.8534 20.1529 11.5228 20.1562 8.06137C20.1537 5.89153 19.3011 3.86006 17.7553 2.34113C16.2188 0.831422 14.1749 0 12 0C9.82645 0 7.78978 0.8325 6.26517 2.34413C4.73644 3.85987 3.89316 5.89036 3.89062 8.06344C3.89395 11.5284 6.06937 13.8632 8.17317 16.1211C9.24398 17.2703 10.3512 18.4587 11.2075 19.8134ZM12 1.875C15.4596 1.875 18.2773 4.65122 18.2812 8.06161C18.2787 10.7803 16.5207 12.6544 14.4852 14.8245C13.6427 15.7228 12.779 16.6435 12.0006 17.6713C11.2295 16.6508 10.3768 15.7356 9.54502 14.8429C7.51847 12.6679 5.7683 10.7895 5.76562 8.06358C5.76961 4.59333 8.50809 1.875 12 1.875Z" fill="#4285F4" />
</svg>