<svg width="42" height="32" viewBox="0 0 42 32" fill="none" xmlns="http://www.w3.org/2000/svg">
<g clip-path="url(#clip0)">
<path d="M20.9985 31.351C20.995 31.351 20.9911 31.351 20.9873 31.351C19.72 31.3423 8.51628 31.2401 5.34205 30.3817C3.12368 29.7853 1.3725 28.0361 0.774571 25.8174C-0.0559962 22.6992 -0.00312446 16.6959 0.00264337 16.2165C-0.00280402 15.7394 -0.0563167 9.68635 0.772008 6.54257C0.772969 6.53968 0.77361 6.53648 0.774571 6.53359C1.36577 4.34022 3.15636 2.53681 5.3366 1.93887C5.34205 1.93727 5.34782 1.93599 5.35327 1.93439C8.49161 1.10959 19.7174 1.00865 20.9873 1H21.01C22.2806 1.00865 33.514 1.11087 36.6591 1.9706C38.8717 2.56533 40.6216 4.31234 41.2211 6.52815C42.0828 9.67418 42.003 15.7403 41.9944 16.2524C42.0004 16.7568 42.0508 22.7063 41.225 25.8401C41.2244 25.8433 41.2234 25.8462 41.2228 25.8491C40.6245 28.0678 38.8736 29.817 36.6527 30.414C36.6498 30.415 36.6466 30.4156 36.6437 30.4166C33.5057 31.2411 22.2796 31.342 21.01 31.351C21.0062 31.351 21.0023 31.351 20.9985 31.351ZM3.94367 7.38403C3.21436 10.159 3.28326 16.1348 3.2839 16.195V16.2383C3.26211 17.8956 3.33869 22.6951 3.94399 24.9682C4.23751 26.0567 5.10108 26.919 6.19633 27.2135C8.53839 27.847 17.6634 28.0463 20.9985 28.0697C24.3422 28.0463 33.4807 27.8525 35.8055 27.2443C36.8972 26.9488 37.7579 26.0894 38.0533 24.9996C38.6593 22.6931 38.7352 17.917 38.7131 16.2703C38.7131 16.253 38.7131 16.2357 38.7134 16.2184C38.7435 14.5413 38.6843 9.68571 38.0562 7.39428C38.0556 7.39204 38.0549 7.3898 38.0546 7.38755C37.7598 6.29423 36.8959 5.43194 35.8007 5.13746C33.4814 4.50332 24.3416 4.30465 20.9985 4.28126C17.657 4.30465 8.52749 4.49819 6.19569 5.10573C5.12127 5.40374 4.23815 6.29679 3.94367 7.38403ZM39.6385 25.4223H39.6395H39.6385ZM16.8165 22.8197V9.53094L28.3009 16.1755L16.8165 22.8197Z" fill="black"/>
</g>
<defs>
<clipPath id="clip0">
<rect width="42" height="32" fill="white"/>
</clipPath>
</defs>
</svg>
